<svg width="1526" height="1527" xmlns="http://www.w3.org/2000/svg" xmlns:xlink="http://www.w3.org/1999/xlink" xml:space="preserve" overflow="hidden"><g transform="translate(-1454 -499)"><path d="M2217.9 499.646C2287.7 499.646 2353.72 511.118 2415.94 534.064 2478.17 557.009 2533.81 589.225 2582.86 630.713 2631.92 672.212 2672.92 721.638 2705.86 778.997 2738.8 836.357 2761.14 899.452 2772.85 968.283 2775.78 986.346 2777.98 1004.65 2779.44 1023.2 2780.91 1041.75 2782.86 1060.06 2785.3 1078.12L2914.88 1078.12C2932.94 1078.12 2948.19 1084.47 2960.64 1097.16 2973.08 1109.85 2979.3 1125.23 2979.3 1143.29 2979.3 1160.38 2972.96 1175.26 2960.27 1187.96L2813.85 1334.41 2873.88 1865.28C2874.37 1868.7 2874.74 1872 2874.98 1875.17 2875.23 1878.34 2875.34 1881.64 2875.34 1885.05 2875.34 1905.07 2871.57 1923.62 2864 1940.71 2856.44 1957.79 2846.06 1972.56 2832.88 1985.01 2819.71 1997.46 2804.45 2007.34 2787.12 2014.66 2769.8 2021.99 2751.38 2025.65 2731.86 2025.65 2708.91 2025.65 2689.38 2023.08 2673.28 2017.96 2657.17 2012.83 2642.66 2006.49 2629.72 1998.92 2616.79 1991.35 2604.95 1983.05 2594.21 1974.02 2583.48 1964.99 2572.37 1956.69 2560.9 1949.13 2549.43 1941.56 2536.87 1935.21 2523.2 1930.09 2509.53 1924.96 2493.18 1922.4 2474.15 1922.4 2455.59 1922.4 2439.37 1924.96 2425.46 1930.09 2411.55 1935.21 2398.86 1941.56 2387.39 1949.13 2375.92 1956.69 2364.94 1964.99 2354.45 1974.02 2343.94 1983.05 2332.36 1991.35 2319.67 1998.92 2306.98 2006.49 2292.46 2012.83 2276.11 2017.96 2259.76 2023.08 2240.35 2025.65 2217.9 2025.65 2195.45 2025.65 2176.05 2023.08 2159.7 2017.96 2143.35 2012.83 2128.83 2006.49 2116.14 1998.92 2103.45 1991.35 2091.74 1983.05 2081 1974.02 2070.26 1964.99 2059.16 1956.69 2047.69 1949.13 2036.22 1941.56 2023.65 1935.21 2009.98 1930.09 1996.32 1924.96 1979.96 1922.4 1960.93 1922.4 1942.38 1922.4 1926.15 1924.96 1912.24 1930.09 1898.33 1935.21 1885.64 1941.56 1874.17 1949.13 1862.7 1956.69 1851.6 1964.99 1840.86 1974.02 1830.12 1983.05 1818.41 1991.35 1805.72 1998.92 1793.03 2006.49 1778.63 2012.83 1762.53 2017.96 1746.42 2023.08 1727.14 2025.65 1704.69 2025.65 1684.68 2025.65 1665.89 2022.23 1648.31 2015.39 1630.74 2008.56 1615.49 1999.04 1602.56 1986.84 1589.62 1974.63 1579.37 1959.99 1571.81 1942.9 1564.24 1925.82 1560.46 1907.02 1560.46 1886.52 1560.46 1883.1 1560.58 1879.68 1560.83 1876.27 1561.07 1872.85 1561.44 1869.43 1561.93 1866.02L1621.96 1336.6 1473.34 1187.96C1460.65 1175.26 1454.3 1160.38 1454.3 1143.29 1454.3 1125.23 1460.53 1109.85 1472.97 1097.16 1485.42 1084.47 1500.67 1078.12 1518.73 1078.12L1651.24 1078.12C1653.68 1059.57 1655.76 1041.26 1657.47 1023.2 1659.18 1005.14 1661.25 986.834 1663.69 968.283 1667.11 942.898 1672.6 917.758 1680.16 892.862 1687.73 867.965 1696.88 843.801 1707.62 820.369 1730.56 771.065 1759.84 726.642 1795.47 687.101 1831.1 647.557 1871.25 613.881 1915.9 586.055 1960.56 558.229 2008.52 536.869 2059.77 521.975 2111.01 507.093 2163.73 499.646 2217.9 499.646Z" fill="#1D2A57" fill-rule="evenodd"/><path d="M1730.58 1139.33C1733.33 1114.64 1735.95 1090.42 1738.47 1066.64 1740.98 1042.87 1743.84 1018.64 1747.04 993.956 1749.33 972.47 1753.9 951.213 1760.76 930.184 1767.61 909.155 1775.61 888.812 1784.76 869.154 1804.42 827.553 1829.33 789.953 1859.5 756.352 1889.68 722.751 1923.62 694.179 1961.34 670.632 1999.06 647.095 2039.63 629.035 2083.06 616.465 2126.49 603.895 2171.3 597.605 2217.47 597.605 2274.16 597.605 2329.25 607.43 2382.74 627.091 2436.22 646.753 2484.35 674.06 2527.09 709.036 2569.84 744.009 2605.49 785.838 2634.07 834.524 2662.64 883.212 2680.58 936.356 2687.9 993.956 2691.1 1018.64 2694.07 1042.87 2696.82 1066.64 2699.56 1090.42 2702.31 1114.64 2705.04 1139.33L2870.32 1139.33C2873.51 1139.33 2876.15 1140.47 2878.2 1142.76 2880.26 1145.05 2881.29 1147.79 2881.29 1150.99 2881.29 1152.82 2877.74 1157.62 2870.66 1165.39 2863.57 1173.16 2854.77 1182.53 2844.26 1193.5 2833.74 1204.48 2821.97 1216.36 2808.94 1229.16 2795.91 1241.96 2783.68 1253.96 2772.25 1265.16 2760.82 1276.36 2750.65 1286.31 2741.74 1294.99 2732.82 1303.68 2726.99 1309.39 2724.24 1312.14L2783.22 1833.29C2783.68 1835.57 2783.9 1837.63 2783.9 1839.46 2783.9 1841.29 2783.9 1843.35 2783.9 1845.63 2783.9 1857.52 2781.62 1868.38 2777.05 1878.2 2772.48 1888.03 2766.42 1896.72 2758.88 1904.26 2751.34 1911.8 2742.42 1917.63 2732.14 1921.75 2721.85 1925.86 2710.99 1927.92 2699.56 1927.92 2681.73 1927.92 2666.31 1925.52 2653.28 1920.72 2640.25 1915.92 2628.24 1909.98 2617.27 1902.89 2606.29 1895.8 2595.78 1888.03 2585.72 1879.58 2575.66 1871.12 2564.69 1863.35 2552.81 1856.26 2540.92 1849.17 2527.32 1843.23 2512.01 1838.43 2496.69 1833.63 2478.52 1831.23 2457.49 1831.23 2436.46 1831.23 2418.4 1833.63 2403.31 1838.43 2388.23 1843.23 2374.74 1849.17 2362.85 1856.26 2350.96 1863.35 2340 1871.12 2329.94 1879.58 2319.88 1888.03 2309.48 1895.8 2298.73 1902.89 2287.99 1909.98 2276.1 1915.92 2263.07 1920.72 2250.04 1925.52 2234.84 1927.92 2217.47 1927.92 2199.64 1927.92 2184.33 1925.52 2171.53 1920.72 2158.73 1915.92 2146.95 1909.98 2136.21 1902.89 2125.47 1895.8 2115.06 1888.03 2105.01 1879.58 2094.95 1871.12 2083.98 1863.35 2072.09 1856.26 2060.2 1849.17 2046.6 1843.23 2031.29 1838.43 2015.97 1833.63 1997.8 1831.23 1976.77 1831.23 1955.74 1831.23 1937.57 1833.63 1922.25 1838.43 1906.94 1843.23 1893.34 1849.29 1881.45 1856.6 1869.56 1863.92 1858.7 1871.69 1848.88 1879.92 1839.05 1888.15 1828.76 1895.92 1818.02 1903.23 1807.27 1910.55 1795.5 1916.6 1782.7 1921.4 1769.9 1926.2 1754.58 1928.61 1736.75 1928.61 1724.87 1928.61 1713.67 1926.66 1703.15 1922.78 1692.64 1918.89 1683.49 1913.4 1675.72 1906.32 1667.95 1899.23 1661.89 1890.66 1657.55 1880.6 1653.21 1870.55 1651.03 1859.35 1651.03 1847 1651.03 1844.72 1651.03 1842.66 1651.03 1840.83 1651.03 1839 1651.26 1836.95 1651.72 1834.66L1710.7 1313.51C1707.95 1310.76 1702.12 1305.05 1693.21 1296.36 1684.29 1287.68 1674.01 1277.62 1662.35 1266.19 1650.69 1254.76 1638.35 1242.53 1625.32 1229.5 1612.29 1216.48 1600.4 1204.48 1589.66 1193.5 1578.92 1182.53 1570 1173.05 1562.91 1165.05 1555.83 1157.05 1552.29 1152.36 1552.29 1150.99 1552.29 1147.79 1553.2 1145.05 1555.03 1142.76 1556.86 1140.47 1559.37 1139.33 1562.57 1139.33Z" fill="#FFFFFF" fill-rule="evenodd"/><path d="M2464.29 1065.61C2464.29 1078.45 2463.02 1091.64 2460.51 1105.17 2457.99 1118.7 2454.9 1131.66 2451.24 1144.04 2433.84 1200 2405.35 1242.08 2365.75 1270.29 2326.16 1298.5 2276.83 1312.61 2217.78 1312.61 2158.73 1312.61 2109.41 1298.5 2069.82 1270.29 2030.22 1242.08 2001.73 1200 1984.33 1144.04 1980.67 1131.66 1977.58 1118.7 1975.06 1105.17 1972.54 1091.64 1971.29 1078.45 1971.29 1065.61L2464.29 1065.61Z" fill="#1D2A57" fill-rule="evenodd"/><path d="M2405.29 1210.66C2405.29 1219.79 2404.02 1228.92 2401.51 1238.05 2398.99 1247.18 2396.81 1256.31 2394.98 1265.44 2390.41 1286.44 2382.74 1305.84 2371.98 1323.64 2361.22 1341.45 2347.93 1356.74 2332.14 1369.52 2316.34 1382.3 2298.71 1392.34 2279.25 1399.65 2259.79 1406.95 2239.3 1410.6 2217.78 1410.6 2196.26 1410.6 2175.77 1406.95 2156.31 1399.65 2136.86 1392.34 2119.23 1382.3 2103.43 1369.52 2087.63 1356.74 2074.35 1341.45 2063.6 1323.64 2052.84 1305.84 2045.17 1286.44 2040.59 1265.44 2038.76 1256.31 2036.58 1247.18 2034.06 1238.05 2031.54 1228.92 2030.29 1219.79 2030.29 1210.66 2030.29 1196.06 2034.63 1183.16 2043.33 1171.98 2052.03 1160.79 2063.48 1153.37 2077.68 1149.72 2100.11 1143.33 2123.23 1138.88 2147.04 1136.37 2170.85 1133.86 2194.43 1132.6 2217.78 1132.6 2241.14 1132.6 2264.72 1133.86 2288.53 1136.37 2312.34 1138.88 2335.46 1143.33 2357.89 1149.72 2372.08 1153.37 2383.54 1160.79 2392.24 1171.98 2400.93 1183.16 2405.29 1196.06 2405.29 1210.66Z" fill="#EE7B6A" fill-rule="evenodd"/><path d="M1995.32 819.604C1999.44 819.604 2006.65 821.889 2016.95 826.456 2027.25 831.025 2038.23 836.278 2049.9 842.216 2061.58 848.154 2072.56 853.978 2082.86 859.689 2093.16 865.398 2100.6 869.395 2105.18 871.679 2114.33 875.79 2118.91 883.099 2118.91 893.604 2118.91 904.11 2114.33 911.419 2105.18 915.53 2100.6 917.814 2093.16 921.812 2082.86 927.521 2072.56 933.231 2061.58 939.055 2049.9 944.994 2038.23 950.932 2027.25 956.184 2016.95 960.753 2006.65 965.32 1999.44 967.604 1995.32 967.604 1988.91 967.604 1983.3 965.205 1978.49 960.41 1973.69 955.613 1971.29 950.017 1971.29 943.623 1971.29 933.116 1975.63 925.579 1984.33 921.012L2039.26 893.604 1984.33 866.197C1980.21 863.913 1977.01 860.83 1974.72 856.947 1972.43 853.065 1971.29 848.611 1971.29 843.586 1971.29 837.191 1973.69 831.596 1978.49 826.799 1983.3 822.003 1988.91 819.604 1995.32 819.604ZM2464.29 893.604C2464.29 903.654 2462.34 913.132 2458.45 922.04 2454.55 930.947 2449.41 938.827 2442.99 945.678 2436.59 952.53 2428.8 957.897 2419.65 961.78 2410.5 965.663 2400.88 967.604 2390.81 967.604 2380.29 967.604 2370.56 965.663 2361.64 961.78 2352.71 957.897 2344.92 952.645 2338.28 946.021 2331.65 939.397 2326.39 931.632 2322.5 922.725 2318.6 913.818 2316.66 904.11 2316.66 893.604 2316.66 883.555 2318.6 873.962 2322.5 864.826 2326.39 855.691 2331.65 847.811 2338.28 841.188 2344.92 834.564 2352.71 829.312 2361.64 825.429 2370.56 821.547 2380.29 819.604 2390.81 819.604 2400.88 819.604 2410.5 821.547 2419.65 825.429 2428.8 829.312 2436.59 834.678 2442.99 841.531 2449.41 848.382 2454.55 856.262 2458.45 865.169 2462.34 874.077 2464.29 883.555 2464.29 893.604Z" fill="#1D2A57" fill-rule="evenodd"/></g></svg>