<svg width="1615" height="1616" xmlns="http://www.w3.org/2000/svg" xmlns:xlink="http://www.w3.org/1999/xlink" xml:space="preserve" overflow="hidden"><g transform="translate(-1392 -429)"><path d="M2200.6 429.805C2274.47 429.805 2344.34 441.947 2410.2 466.231 2476.06 490.514 2534.94 524.609 2586.86 568.516 2638.78 612.435 2682.17 664.744 2717.04 725.448 2751.9 786.154 2775.54 852.928 2787.94 925.773 2791.04 944.89 2793.36 964.261 2794.91 983.893 2796.47 1003.52 2798.53 1022.9 2801.11 1042.02L2938.25 1042.02C2957.37 1042.02 2973.51 1048.74 2986.68 1062.17 2999.85 1075.6 3006.43 1091.87 3006.43 1110.99 3006.43 1129.07 2999.72 1144.82 2986.29 1158.26L2831.33 1313.25 2894.86 1875.08C2895.38 1878.7 2895.77 1882.19 2896.02 1885.55 2896.29 1888.9 2896.41 1892.4 2896.41 1896.01 2896.41 1917.19 2892.42 1936.83 2884.4 1954.91 2876.4 1972.99 2865.42 1988.62 2851.47 2001.8 2837.53 2014.97 2821.38 2025.43 2803.04 2033.17 2784.71 2040.93 2765.21 2044.81 2744.55 2044.81 2720.26 2044.81 2699.59 2042.09 2682.55 2036.67 2665.5 2031.24 2650.15 2024.53 2636.45 2016.52 2622.77 2008.51 2610.24 1999.72 2598.87 1990.16 2587.51 1980.61 2575.75 1971.82 2563.62 1963.82 2551.48 1955.81 2538.18 1949.09 2523.72 1943.67 2509.25 1938.24 2491.94 1935.53 2471.8 1935.53 2452.16 1935.53 2434.99 1938.24 2420.27 1943.67 2405.55 1949.09 2392.12 1955.81 2379.98 1963.82 2367.84 1971.82 2356.22 1980.61 2345.12 1990.16 2333.99 1999.72 2321.74 2008.51 2308.31 2016.52 2294.88 2024.53 2279.51 2031.24 2262.2 2036.67 2244.9 2042.09 2224.36 2044.81 2200.6 2044.81 2176.84 2044.81 2156.31 2042.09 2139 2036.67 2121.7 2031.24 2106.33 2024.53 2092.9 2016.52 2079.47 2008.51 2067.07 1999.72 2055.71 1990.16 2044.34 1980.61 2032.59 1971.82 2020.45 1963.82 2008.31 1955.81 1995.01 1949.09 1980.54 1943.67 1966.09 1938.24 1948.77 1935.53 1928.63 1935.53 1909 1935.53 1891.82 1938.24 1877.1 1943.67 1862.38 1949.09 1848.95 1955.81 1836.81 1963.82 1824.67 1971.82 1812.92 1980.61 1801.55 1990.16 1790.19 1999.72 1777.79 2008.51 1764.36 2016.52 1750.93 2024.53 1735.69 2031.24 1718.65 2036.67 1701.6 2042.09 1681.2 2044.81 1657.44 2044.81 1636.26 2044.81 1616.37 2041.19 1597.77 2033.95 1579.17 2026.72 1563.03 2016.64 1549.35 2003.73 1535.65 1990.81 1524.8 1975.32 1516.8 1957.23 1508.79 1939.15 1504.79 1919.26 1504.79 1897.56 1504.79 1893.94 1504.92 1890.32 1505.18 1886.71 1505.43 1883.09 1505.83 1879.47 1506.34 1875.87L1569.88 1315.57 1412.58 1158.26C1399.15 1144.82 1392.43 1129.07 1392.43 1110.99 1392.43 1091.87 1399.03 1075.6 1412.19 1062.17 1425.37 1048.74 1441.51 1042.02 1460.62 1042.02L1600.87 1042.02C1603.45 1022.38 1605.65 1003.01 1607.46 983.893 1609.27 964.78 1611.46 945.406 1614.04 925.773 1617.66 898.908 1623.47 872.302 1631.47 845.954 1639.49 819.605 1649.17 794.032 1660.54 769.233 1684.82 717.053 1715.8 670.04 1753.51 628.193 1791.22 586.343 1833.72 550.703 1880.97 521.254 1928.24 491.805 1979 469.199 2033.24 453.437 2087.47 437.687 2143.27 429.805 2200.6 429.805Z" fill="#1D2A57" fill-rule="evenodd"/><path d="M1723.14 1116.55C1725.84 1092.36 1728.4 1068.64 1730.87 1045.34 1733.33 1022.05 1736.13 998.313 1739.27 974.13 1741.51 953.08 1745.99 932.254 1752.71 911.651 1759.42 891.049 1767.26 871.119 1776.22 851.859 1795.48 811.103 1819.89 774.266 1849.44 741.346 1879.01 708.427 1912.26 680.435 1949.21 657.365 1986.17 634.306 2025.91 616.612 2068.46 604.298 2111.01 591.982 2154.91 585.82 2200.14 585.82 2255.68 585.82 2309.65 595.446 2362.05 614.708 2414.45 633.971 2461.6 660.724 2503.47 694.99 2545.35 729.254 2580.28 770.234 2608.28 817.932 2636.27 865.632 2653.84 917.698 2661.01 974.13 2664.15 998.313 2667.06 1022.05 2669.75 1045.34 2672.44 1068.64 2675.13 1092.36 2677.81 1116.55L2839.73 1116.55C2842.85 1116.55 2845.44 1117.67 2847.45 1119.91 2849.47 1122.16 2850.48 1124.84 2850.48 1127.98 2850.48 1129.77 2847 1134.47 2840.06 1142.09 2833.12 1149.7 2824.49 1158.88 2814.2 1169.62 2803.89 1180.38 2792.36 1192.02 2779.6 1204.56 2766.83 1217.1 2754.85 1228.86 2743.65 1239.83 2732.45 1250.8 2722.49 1260.55 2713.76 1269.06 2705.02 1277.57 2699.31 1283.16 2696.62 1285.86L2754.4 1796.43C2754.85 1798.67 2755.06 1800.69 2755.06 1802.48 2755.06 1804.27 2755.06 1806.29 2755.06 1808.52 2755.06 1820.17 2752.83 1830.81 2748.35 1840.43 2743.88 1850.06 2737.94 1858.58 2730.55 1865.96 2723.17 1873.35 2714.43 1879.06 2704.36 1883.1 2694.27 1887.13 2683.64 1889.14 2672.44 1889.14 2654.97 1889.14 2639.86 1886.79 2627.1 1882.09 2614.33 1877.39 2602.57 1871.57 2591.82 1864.62 2581.06 1857.68 2570.77 1850.06 2560.91 1841.78 2551.05 1833.5 2540.31 1825.88 2528.67 1818.94 2517.02 1811.99 2503.7 1806.17 2488.7 1801.47 2473.69 1796.77 2455.89 1794.42 2435.29 1794.42 2414.68 1794.42 2396.99 1796.77 2382.21 1801.47 2367.43 1806.17 2354.22 1811.99 2342.57 1818.94 2330.92 1825.88 2320.18 1833.5 2310.33 1841.78 2300.47 1850.06 2290.28 1857.68 2279.75 1864.62 2269.23 1871.57 2257.58 1877.39 2244.81 1882.09 2232.05 1886.79 2217.16 1889.14 2200.14 1889.14 2182.67 1889.14 2167.67 1886.79 2155.14 1882.09 2142.59 1877.39 2131.05 1871.57 2120.53 1864.62 2110.01 1857.68 2099.81 1850.06 2089.97 1841.78 2080.11 1833.5 2069.36 1825.88 2057.71 1818.94 2046.07 1811.99 2032.74 1806.17 2017.74 1801.47 2002.74 1796.77 1984.93 1794.42 1964.33 1794.42 1943.73 1794.42 1925.93 1796.77 1910.92 1801.47 1895.92 1806.17 1882.6 1812.11 1870.95 1819.27 1859.3 1826.44 1848.66 1834.06 1839.04 1842.12 1829.41 1850.18 1819.33 1857.79 1808.81 1864.96 1798.28 1872.13 1786.74 1878.05 1774.2 1882.76 1761.66 1887.46 1746.66 1889.82 1729.19 1889.82 1717.55 1889.82 1706.58 1887.91 1696.27 1884.11 1685.97 1880.3 1677.01 1874.92 1669.4 1867.98 1661.79 1861.04 1655.85 1852.64 1651.6 1842.78 1647.34 1832.94 1645.21 1821.97 1645.21 1809.87 1645.21 1807.63 1645.21 1805.61 1645.21 1803.82 1645.21 1802.03 1645.43 1800.02 1645.89 1797.78L1703.67 1287.2C1700.97 1284.51 1695.26 1278.91 1686.53 1270.4 1677.79 1261.89 1667.72 1252.04 1656.3 1240.84 1644.88 1229.64 1632.79 1217.66 1620.02 1204.89 1607.26 1192.14 1595.61 1180.38 1585.09 1169.62 1574.56 1158.88 1565.83 1149.59 1558.88 1141.75 1551.94 1133.91 1548.48 1129.32 1548.48 1127.98 1548.48 1124.84 1549.37 1122.16 1551.16 1119.91 1552.95 1117.67 1555.41 1116.55 1558.55 1116.55Z" fill="#FFFFFF" fill-rule="evenodd"/><path d="M2441.48 1044.82C2441.48 1057.4 2440.23 1070.32 2437.77 1083.58 2435.3 1096.84 2432.28 1109.53 2428.69 1121.66 2411.64 1176.49 2383.73 1217.72 2344.93 1245.36 2306.15 1273 2257.82 1286.82 2199.97 1286.82 2142.11 1286.82 2093.79 1273 2055.01 1245.36 2016.21 1217.72 1988.3 1176.49 1971.25 1121.66 1967.66 1109.53 1964.64 1096.84 1962.17 1083.58 1959.7 1070.32 1958.48 1057.4 1958.48 1044.82L2441.48 1044.82Z" fill="#1D2A57" fill-rule="evenodd"/><path d="M2383.48 1186.48C2383.48 1195.44 2382.23 1204.41 2379.78 1213.37 2377.31 1222.34 2375.18 1231.3 2373.39 1240.27 2368.91 1260.89 2361.41 1279.94 2350.88 1297.42 2340.35 1314.91 2327.34 1329.93 2311.89 1342.48 2296.42 1355.03 2279.17 1364.89 2260.12 1372.07 2241.08 1379.24 2221.03 1382.82 2199.97 1382.82 2178.91 1382.82 2158.85 1379.24 2139.81 1372.07 2120.77 1364.89 2103.52 1355.03 2088.06 1342.48 2072.59 1329.93 2059.6 1314.91 2049.08 1297.42 2038.55 1279.94 2031.04 1260.89 2026.56 1240.27 2024.77 1231.3 2022.63 1222.34 2020.17 1213.37 2017.7 1204.41 2016.48 1195.44 2016.48 1186.48 2016.48 1172.14 2020.72 1159.47 2029.24 1148.49 2037.75 1137.5 2048.96 1130.22 2062.85 1126.63 2084.81 1120.36 2107.43 1115.99 2130.74 1113.52 2154.04 1111.06 2177.11 1109.82 2199.97 1109.82 2222.83 1109.82 2245.91 1111.06 2269.21 1113.52 2292.51 1115.99 2315.14 1120.36 2337.09 1126.63 2350.97 1130.22 2362.19 1137.5 2370.7 1148.49 2379.21 1159.47 2383.48 1172.14 2383.48 1186.48Z" fill="#EE7B6A" fill-rule="evenodd"/><path d="M1982.02 803.82C1986.05 803.82 1993.12 806.059 2003.21 810.533 2013.3 815.009 2024.06 820.156 2035.49 825.974 2046.93 831.791 2057.69 837.497 2067.78 843.092 2077.87 848.686 2085.16 852.602 2089.65 854.84 2098.61 858.867 2103.1 866.028 2103.1 876.32 2103.1 886.613 2098.61 893.774 2089.65 897.802 2085.16 900.039 2077.87 903.956 2067.78 909.55 2057.69 915.144 2046.93 920.85 2035.49 926.668 2024.06 932.486 2013.3 937.632 2003.21 942.108 1993.12 946.582 1986.05 948.82 1982.02 948.82 1975.74 948.82 1970.24 946.47 1965.53 941.772 1960.83 937.072 1958.48 931.59 1958.48 925.325 1958.48 915.031 1962.73 907.647 1971.25 903.173L2025.07 876.32 1971.25 849.469C1967.21 847.231 1964.08 844.21 1961.84 840.406 1959.59 836.603 1958.48 832.239 1958.48 827.316 1958.48 821.051 1960.83 815.569 1965.53 810.869 1970.24 806.17 1975.74 803.82 1982.02 803.82ZM2441.48 876.32C2441.48 886.166 2439.56 895.452 2435.75 904.179 2431.93 912.906 2426.9 920.627 2420.61 927.339 2414.34 934.052 2406.71 939.31 2397.74 943.114 2388.78 946.918 2379.35 948.82 2369.49 948.82 2359.18 948.82 2349.65 946.918 2340.91 943.114 2332.16 939.31 2324.53 934.164 2318.02 927.675 2311.53 921.185 2306.37 913.577 2302.56 904.851 2298.74 896.124 2296.84 886.613 2296.84 876.32 2296.84 866.475 2298.74 857.076 2302.56 848.125 2306.37 839.176 2311.53 831.455 2318.02 824.966 2324.53 818.477 2332.16 813.331 2340.91 809.527 2349.65 805.724 2359.18 803.82 2369.49 803.82 2379.35 803.82 2388.78 805.724 2397.74 809.527 2406.71 813.331 2414.34 818.589 2420.61 825.302 2426.9 832.015 2431.93 839.735 2435.75 848.461 2439.56 857.189 2441.48 866.475 2441.48 876.32Z" fill="#1D2A57" fill-rule="evenodd"/></g></svg>